<svg width="1280" height="640" viewBox="0 0 1280 640" fill="none" xmlns="http://www.w3.org/2000/svg">
  <defs>
    <linearGradient id="bg" x1="96" y1="72" x2="1182" y2="586" gradientUnits="userSpaceOnUse">
      <stop stop-color="#020617" />
      <stop offset="0.52" stop-color="#0F172A" />
      <stop offset="1" stop-color="#1D4ED8" />
    </linearGradient>
    <linearGradient id="scope" x1="760" y1="152" x2="994" y2="386" gradientUnits="userSpaceOnUse">
      <stop stop-color="#7DD3FC" />
      <stop offset="1" stop-color="#38BDF8" />
    </linearGradient>
    <linearGradient id="trace" x1="188" y1="405" x2="504" y2="405" gradientUnits="userSpaceOnUse">
      <stop stop-color="#F59E0B" />
      <stop offset="1" stop-color="#FB7185" />
    </linearGradient>
  </defs>
  <rect x="20" y="20" width="1240" height="600" rx="40" fill="url(#bg)" />
  <rect x="72" y="104" width="1136" height="432" rx="28" fill="#0F172A" fill-opacity="0.44" stroke="#334155" />

  <g opacity="0.9">
    <text x="96" y="184" fill="#E2E8F0" font-family="Inter,Segoe UI,Arial,sans-serif" font-size="72" font-weight="800">WideScope</text>
    <text x="96" y="236" fill="#93C5FD" font-family="Inter,Segoe UI,Arial,sans-serif" font-size="28" font-weight="600">Browser-native trace viewer for LLM and AI agent pipelines</text>
    <text x="96" y="292" fill="#94A3B8" font-family="Inter,Segoe UI,Arial,sans-serif" font-size="22" font-weight="500">OTLP JSON + Jaeger JSON • Rust/WASM core • Flame graph + timeline • Local-first inspection</text>
  </g>

  <g opacity="0.95">
    <rect x="96" y="346" width="188" height="44" rx="22" fill="#0B1220" stroke="#334155" />
    <text x="190" y="374" text-anchor="middle" fill="#E2E8F0" font-family="Inter,Segoe UI,Arial,sans-serif" font-size="18" font-weight="700">Zero backend</text>

    <rect x="298" y="346" width="174" height="44" rx="22" fill="#0B1220" stroke="#334155" />
    <text x="385" y="374" text-anchor="middle" fill="#E2E8F0" font-family="Inter,Segoe UI,Arial,sans-serif" font-size="18" font-weight="700">LLM-aware</text>

    <rect x="96" y="406" width="232" height="44" rx="22" fill="#0B1220" stroke="#334155" />
    <text x="212" y="434" text-anchor="middle" fill="#E2E8F0" font-family="Inter,Segoe UI,Arial,sans-serif" font-size="18" font-weight="700">Flame + timeline</text>

    <rect x="342" y="406" width="196" height="44" rx="22" fill="#0B1220" stroke="#334155" />
    <text x="440" y="434" text-anchor="middle" fill="#E2E8F0" font-family="Inter,Segoe UI,Arial,sans-serif" font-size="18" font-weight="700">Search + inspect</text>
  </g>

  <g>
    <path d="M188 512C232 472 280 446 336 430C390 414 444 406 504 402" stroke="url(#trace)" stroke-width="10" stroke-linecap="round" />
    <circle cx="188" cy="512" r="10" fill="#FBBF24" />
    <circle cx="276" cy="459" r="10" fill="#F59E0B" />
    <circle cx="392" cy="423" r="10" fill="#FB7185" />
    <circle cx="504" cy="402" r="10" fill="#F472B6" />
  </g>

  <g>
    <circle cx="846" cy="276" r="118" fill="url(#scope)" fill-opacity="0.16" stroke="#7DD3FC" stroke-width="24" />
    <circle cx="846" cy="276" r="64" fill="#7DD3FC" fill-opacity="0.14" stroke="#E0F2FE" stroke-width="12" />
    <path d="M924 195L1032 130" stroke="#E2E8F0" stroke-width="28" stroke-linecap="round" />
    <path d="M911 356L1033 478" stroke="#E2E8F0" stroke-width="24" stroke-linecap="round" />
    <path d="M1033 478L971 540" stroke="#94A3B8" stroke-width="18" stroke-linecap="round" />
    <path d="M1033 478L1094 539" stroke="#94A3B8" stroke-width="18" stroke-linecap="round" />
    <circle cx="1032" cy="130" r="16" fill="#E2E8F0" />
  </g>

  <g opacity="0.52">
    <rect x="1014" y="176" width="124" height="18" rx="9" fill="#1E293B" />
    <rect x="1014" y="208" width="144" height="18" rx="9" fill="#334155" />
    <rect x="1014" y="240" width="98" height="18" rx="9" fill="#1E40AF" />
    <rect x="1014" y="304" width="132" height="18" rx="9" fill="#1E293B" />
    <rect x="1014" y="336" width="168" height="18" rx="9" fill="#334155" />
    <rect x="1014" y="368" width="112" height="18" rx="9" fill="#1E40AF" />
  </g>
</svg>
